# xmcd
#
# Track frame offsets: 
#        150
#        20221
#        36648
#        60853
#        85163
#        107268
#        127619
#        148978
#        156762
#        177473
#
# Disc length: 2772 seconds
#
# Revision: 0
# Processed by: cddbd v1.5.2PL0 Copyright (c) Steve Scherf et al.
# Submitted via: ExactAudioCopy v0.99pb5
#
DISCID=800ad20a
DTITLE=Bob der Baumeister - Vol. 30 - Sprinti und die bunte Höhle
DYEAR=2009
DGENRE=Kinderhörbuch
TTITLE0=Rumpel und das Talkie Talkie - Goldgelb und blau
TTITLE1=Rumpel und das Talkie Talkie - Yoghurt und Jurte
TTITLE2=Rumpel und das Talkie Talkie - Montage
TTITLE3=Rumpel und das Talkie Talkie - Ein schönes Plätzchen
TTITLE4=Rumpel und das Talkie Talkie - Panik
TTITLE5=Sprinti und die bunte Höhle - Seltsame Steinhäuser
TTITLE6=Sprinti und die bunte Höhle - Höhlenhaus
TTITLE7=Sprinti und die bunte Höhle - Etwas Buntes
TTITLE8=Sprinti und die bunte Höhle - Tja-da-die-tja-da
TTITLE9=Sprinti und die bunte Höhle - Falsche Höhle
EXTD=
EXTT0=
EXTT1=
EXTT2=
EXTT3=
EXTT4=
EXTT5=
EXTT6=
EXTT7=
EXTT8=
EXTT9=
PLAYORDER=
